<svg width="18" height="17" viewBox="0 0 18 17" fill="none" xmlns="http://www.w3.org/2000/svg">
    <path d="M16.8018 16.5L13.3018 13M15.3018 8C15.3018 8.91925 15.1207 9.82951 14.7689 10.6788C14.4171 11.5281 13.9015 12.2997 13.2515 12.9497C12.6015 13.5998 11.8298 14.1154 10.9805 14.4672C10.1313 14.8189 9.22101 15 8.30176 15C7.3825 15 6.47225 14.8189 5.62297 14.4672C4.77369 14.1154 4.00202 13.5998 3.35201 12.9497C2.702 12.2997 2.18638 11.5281 1.8346 10.6788C1.48282 9.82951 1.30176 8.91925 1.30176 8C1.30176 6.14348 2.03926 4.36301 3.35201 3.05025C4.66476 1.7375 6.44524 1 8.30176 1C10.1583 1 11.9388 1.7375 13.2515 3.05025C14.5643 4.36301 15.3018 6.14348 15.3018 8Z" stroke="#222222" stroke-linecap="round" stroke-linejoin="round"/>
</svg>